<svg xmlns="http://www.w3.org/2000/svg" viewBox="0 0 7277.19 2000"><defs><style>.cls-1{fill:#fff;}</style></defs><g id="Background"><rect class="cls-1" width="7277.19" height="2000"/></g><g id="Content"><path d="M2384.74,504.19c-77.17,0-151.58,9.65-181.9,17.92-44.09,12.4-55.12,31.69-63.39,71.65l-175,807.52c-2.76,16.54-5.52,30.32-5.52,44.1,0,40,26.19,66.14,68.9,66.14,46.86,0,66.15-30.31,75.8-77.16l49.6-230.13c34.45,4.13,79.93,8.26,144.7,8.26,285.25,0,463-154.33,463-387.22C2760.94,621.32,2619,504.19,2384.74,504.19Zm-93.7,576c-44.1,0-78.55-1.37-110.25-5.51l92.33-428.56c28.94-4.14,71.66-9.65,115.76-9.65,151.58,0,228.75,71.66,228.75,190.17C2617.63,978.23,2507.39,1080.2,2291,1080.2Z"/><path d="M6874.28,1245.57c-23.42,0-38.58,13.78-67.52,45.47-51,52.37-82.68,81.3-122.64,81.3-35.83,0-55.13-28.93-55.13-75.79,0-26.18,5.52-57.87,12.41-92.32l51-239.78h153c48.23,0,77.17-27.56,77.17-77.17,0-27.56-17.91-48.23-59.25-48.23H6719.94l24.81-111.62c2.75-16.53,5.51-31.69,5.51-45.47,0-38.59-26.18-66.15-68.9-66.15-45.48,0-66.15,30.32-75.79,77.17l-31.7,146.07h-64.76c-49.61,0-78.55,27.56-78.55,77.17,0,27.56,19.29,48.23,60.63,48.23h56.5l-51,237c-5.51,26.18-12.4,68.9-12.4,113,0,111.62,57.88,192.92,181.9,192.92,71.66,0,135.05-35.83,183.28-78.55,46.85-41.34,81.3-92.32,81.3-125.4C6930.78,1271.75,6906,1245.57,6874.28,1245.57Z"/><path d="M3704.86,585.5c0-40-27.56-66.15-70.28-66.15-45.47,0-66.14,30.32-75.79,77.17l-172.25,800.63c-4.14,16.54-6.89,30.32-6.89,44.1,0,40,27.56,66.14,68.9,66.14,46.85,0,67.52-30.32,77.17-77.17L3698,629.59C3700.73,613.06,3704.86,599.28,3704.86,585.5Z"/><path d="M6164.6,825.27c-220.48,0-370.69,219.11-370.69,427.19,0,3.9.1,7.75.22,11.59-34.58,52.5-78.76,106.92-109.08,106.92-22.05,0-30.32-20.67-30.32-52.37,0-38.58,11-103.35,23.43-159.85l114.38-529.16c2.75-16.53,5.51-30.31,5.51-44.09,0-40-26.18-66.15-68.9-66.15-46.85,0-66.15,30.32-75.79,77.17l-62,286.63C5558.27,848.7,5510,825.27,5437,825.27c-146.43,0-293.7,112.73-351.1,285.6-63.21,163.42-119.7,260.1-164.27,260.1-16.53,0-26.18-13.78-26.18-37.21,0-68.9,38.58-237,55.12-318.32,5.51-30.32,8.27-42.72,8.27-60.64,0-60.63-100.6-132.29-231.51-132.29-151.37,0-288.48,95.86-357.24,238.35C4268,1241.28,4174.3,1371,4127.91,1371c-20.67,0-27.56-26.19-33.07-51l-34.45-190.17,210.84-172.25c19.29-16.54,44.09-40,44.09-70.28,0-37.2-24.8-62-62-62-27.56,0-51,16.54-74.41,35.83L3862,1122.92l106.11-493.33c2.76-16.53,6.89-30.31,6.89-44.09,0-40-27.56-66.15-70.28-66.15-45.47,0-66.14,30.32-75.79,77.17l-172.25,800.63c-4.13,16.54-6.89,30.32-6.89,44.1,0,40,27.56,66.14,68.9,66.14,46.85,0,67.52-30.32,77.17-77.17l22.05-103.35,129.53-104.73,31.7,159.85c12.4,63.39,45.47,125.4,130.91,125.4,85,0,151.86-77.63,218.85-182.52,20.33,109.86,98.48,182.52,206.95,182.52,108.86,0,183.27-64.77,231.5-151.58v2.75c0,89.58,45.48,148.83,125.4,148.83,72.26,0,132.29-43.57,185.91-136.21,30.41,80.73,98.38,136.21,193,136.21,111.62,0,191.54-67.52,242.53-161.23v8.27c0,99.22,49.61,153,130.91,153,71.78,0,132.82-41.66,184.86-109.53,39.61,67.8,110.59,109.53,206.5,109.53,220.48,0,370.68-219.1,370.68-428.56C6407.13,931.38,6317.56,825.27,6164.6,825.27ZM4790.73,1105c-40,172.25-125.4,270.09-221.86,270.09-64.77,0-100.6-49.61-100.6-124,0-146.07,106.11-303.17,248-303.17,42.71,0,75.79,12.41,104.73,30.32Zm767.54-73c-44.09,202.57-144.69,343.13-254.93,343.13-60.63,0-96.46-46.85-96.46-124,0-147.45,102-300.41,238.4-300.41,52.36,0,92.32,17.91,121.26,41.34ZM6053,1375.1c-79.92,0-113-57.88-113-130.91,0-133.67,92.32-286.63,208.08-286.63,79.92,0,113,57.88,113,130.91C6261.06,1223.52,6168.74,1375.1,6053,1375.1Z"/><path d="M3104.06,825.27c-220.49,0-370.69,219.11-370.69,427.19,0,148.82,89.57,254.93,242.53,254.93,220.48,0,370.69-219.1,370.69-428.56C3346.59,931.38,3257,825.27,3104.06,825.27ZM2992.44,1375.1c-79.93,0-113-57.88-113-130.91,0-133.67,92.33-286.63,208.08-286.63,79.93,0,113,57.88,113,130.91C3200.52,1223.52,3108.19,1375.1,2992.44,1375.1Z"/><ellipse cx="1000" cy="441.78" rx="254.27" ry="147.95"/><ellipse cx="1000" cy="1556.15" rx="254.27" ry="147.95"/><ellipse cx="517.47" cy="720.38" rx="254.27" ry="147.95" transform="translate(-365.13 808.33) rotate(-60)"/><ellipse cx="1482.53" cy="1277.56" rx="254.27" ry="147.95" transform="translate(-365.13 1922.69) rotate(-60)"/><ellipse cx="517.47" cy="1277.56" rx="147.95" ry="254.27" transform="translate(-569.45 429.89) rotate(-30)"/><ellipse cx="1482.53" cy="720.38" rx="147.95" ry="254.27" transform="translate(-161.57 837.78) rotate(-30)"/></g></svg>