<svg width="42" height="42" viewBox="0 0 28 28" fill="#000000" xmlns="http://www.w3.org/2000/svg" stroke-width="2" stroke-linecap="round" stroke-linejoin="round" stroke="#000000"><path fill-rule="evenodd" clip-rule="evenodd" d="M22.1818 4C21.8304 4 21.5455 4.28491 21.5455 4.63636C21.5455 4.98782 21.8304 5.27273 22.1818 5.27273C22.5333 5.27273 22.8182 4.98782 22.8182 4.63636C22.8182 4.28491 22.5333 4 22.1818 4ZM19.8258 3.45205C20.2596 2.5908 21.1517 2 22.1818 2C23.6378 2 24.8182 3.18034 24.8182 4.63636C24.8182 6.09239 23.6378 7.27273 22.1818 7.27273C21.0165 7.27273 20.0278 6.51666 19.6794 5.4683L16.3877 4.73682L15.2464 9.68257C17.4494 9.84731 19.4874 10.4446 21.1811 11.3691C21.7773 10.9644 22.4977 10.7271 23.2727 10.7271C25.3312 10.7271 27 12.3959 27 14.4544C27 15.5308 26.5433 16.4999 25.8156 17.1794C25.8773 17.5373 25.9091 17.9022 25.9091 18.2726C25.9091 20.7972 24.4459 22.9805 22.2874 24.4916C20.1256 26.0048 17.1925 26.909 14 26.909C10.8075 26.909 7.87438 26.0048 5.71265 24.4916C3.55407 22.9805 2.09091 20.7972 2.09091 18.2726C2.09091 17.9022 2.12274 17.5373 2.18436 17.1795C1.45689 16.5002 1 15.5306 1 14.4544C1 12.3959 2.66876 10.7271 4.72727 10.7271C5.50217 10.7271 6.22268 10.9643 6.81887 11.3691C8.62646 10.3825 10.8263 9.76846 13.2001 9.65525L14.662 3.32059C14.7855 2.78554 15.3173 2.45015 15.8533 2.56927L19.8258 3.45205ZM9.31509 17.0621C9.70561 17.4526 10.3388 17.4526 10.7293 17.0621C11.1198 16.6716 11.1198 16.0384 10.7293 15.6479L10.7073 15.6259C10.3168 15.2354 9.68363 15.2354 9.29311 15.6259C8.90258 16.0164 8.90258 16.6496 9.29311 17.0401L9.31509 17.0621ZM17.315 17.0621C17.7055 17.4526 18.3387 17.4526 18.7292 17.0621C19.1197 16.6716 19.1197 16.0384 18.7292 15.6479L18.7072 15.6259C18.3167 15.2354 17.6836 15.2354 17.293 15.6259C16.9025 16.0164 16.9025 16.6496 17.293 17.0401L17.315 17.0621ZM10.1863 20.1649C9.72722 19.8626 9.1096 19.9875 8.80432 20.4454C8.49796 20.9049 8.62214 21.5258 9.08167 21.8322L9.63637 21.0001C9.08167 21.8322 9.08199 21.8324 9.08231 21.8326L9.08299 21.833L9.08448 21.834L9.08791 21.8363L9.09662 21.842L9.12142 21.8578C9.14121 21.8703 9.16751 21.8866 9.2002 21.9061C9.26556 21.945 9.35654 21.9969 9.4721 22.0571C9.70305 22.1776 10.0332 22.3324 10.4537 22.4854C11.295 22.7913 12.5018 23.091 14 23.091C15.4982 23.091 16.7051 22.7913 17.5463 22.4854C17.9668 22.3324 18.297 22.1776 18.5279 22.0571C18.6435 21.9969 18.7345 21.945 18.7998 21.9061C18.8325 21.8866 18.8588 21.8703 18.8786 21.8578L18.9034 21.842L18.9121 21.8363L18.9155 21.834L18.917 21.833L18.9177 21.8326C18.918 21.8324 18.9183 21.8322 18.3636 21.0001L18.9183 21.8322C19.3779 21.5258 19.502 20.9049 19.1957 20.4454C18.8904 19.9875 18.2728 19.8626 17.8137 20.1649L17.8106 20.1669C17.8051 20.1703 17.7936 20.1775 17.7762 20.1879C17.7414 20.2086 17.6832 20.242 17.6028 20.284C17.4417 20.368 17.1922 20.486 16.8628 20.6058C16.204 20.8453 15.2291 21.091 14 21.091C12.7709 21.091 11.796 20.8453 11.1372 20.6058C10.8078 20.486 10.5583 20.368 10.3972 20.284C10.3168 20.242 10.2586 20.2086 10.2238 20.1879C10.2064 20.1775 10.1949 20.1703 10.1894 20.1669L10.1863 20.1649L10.1863 20.1649Z" stroke="none"></path></svg>