<svg width="42" height="42" viewBox="0 0 28 28" fill="#000000" xmlns="http://www.w3.org/2000/svg" stroke-width="2" stroke-linecap="round" stroke-linejoin="round" stroke="#000000"><path d="M26.7,5.6c-0.2-0.2-0.5-0.3-0.7-0.3c0.1-0.3,0.2-0.4,0.2-0.5c0.2-0.4,0.1-0.9-0.2-1.2c-0.3-0.3-0.8-0.4-1.2-0.2 c-0.3,0.1-1.1,0.6-1.6,0.7c-0.2,0.1-0.6,0.2-0.8,0.2c-1-0.9-2.4-1.4-3.7-1.4c-3.2,0-5.8,2.6-5.8,5.9c-1.2-0.2-2.9-0.6-4-1.2 C7,6.8,4.4,4.2,4.3,4.2C4.1,4,3.8,3.9,3.5,3.9C3.2,4,2.9,4.1,2.8,4.4c0,0.1-1.1,1.8-0.6,4.1C2.3,9,2.5,9.6,2.8,10 c-0.1,0-0.3,0.1-0.4,0.2C2.1,10.4,2,10.7,2,11.1c0,0.1,0.1,2.1,1.4,3.7C3.6,15,3.8,15.2,4,15.5c-0.1,0.1-0.1,0.1-0.1,0.2 c-0.2,0.3-0.2,0.6-0.1,0.9c0,0.1,0.8,1.9,2.2,2.9c0.3,0.2,0.6,0.4,0.9,0.5c-0.3,0.2-0.7,0.3-0.9,0.4c-1.2,0.4-3.2,0.4-3.9,0.4 c-0.5,0-0.9,0.3-1,0.7c-0.1,0.4,0.1,0.9,0.5,1.1C1.8,22.8,6,25,10.7,25c2.7,0,5.6-0.7,8.1-3c5.4-5.1,5.8-10.7,5.8-12.5 c0.3-0.2,0.8-0.6,1.1-1c0.6-0.6,1.2-1.6,1.2-1.8C27.1,6.4,27,5.9,26.7,5.6z" stroke="none"></path></svg>