<?xml version="1.0" encoding="utf-8"?>
<!-- Generator: Adobe Illustrator 23.0.6, SVG Export Plug-In . SVG Version: 6.00 Build 0)  -->
<svg version="1.1" id="Layer_1" xmlns="http://www.w3.org/2000/svg" xmlns:xlink="http://www.w3.org/1999/xlink" x="0px" y="0px"
	 viewBox="0 0 350 350" xml:space="preserve">
<style type="text/css">
	.st0{fill:#000;}
</style>
<title>Web3Foundation_4</title>
<path class="st0" d="M233.3,140.1v-14.6c0-5.3-3.2-10.1-8.1-12.1L134.5,76v8.1l80.8,33.3c1.7,0.7,2.5,2.7,1.8,4.4
	c-0.3,0.8-1,1.5-1.8,1.8L134.5,157v32.6l48.7-20.1l32,13.2c1.7,0.7,2.5,2.7,1.8,4.4c-0.3,0.8-1,1.5-1.8,1.8l-80.7,33.3v51.5
	l90.7-37.4c4.9-2,8.1-6.8,8.1-12.1v-33.5c0-5.3-3.2-10.1-8.1-12.1L193,165.4l32.1-13.2C230,150.2,233.3,145.4,233.3,140.1z"/>
</svg>
