<svg width="42" height="42" viewBox="0 0 29 29" fill="#000000" xmlns="http://www.w3.org/2000/svg" stroke-width="2" stroke-linecap="round" stroke-linejoin="round" stroke="#000000"><path fill-rule="evenodd" clip-rule="evenodd" d="M3.97656 14.6758C3.97656 13.7469 4.09169 12.845 4.30845 11.9834H7.92843C7.71522 12.8935 7.60699 13.8095 7.60699 14.7314C7.60699 15.6171 7.70691 16.4959 7.90384 17.3677H4.30833C4.09164 16.5062 3.97656 15.6045 3.97656 14.6758ZM8.56849 9.9834H5.02475C6.46094 6.94279 9.2496 4.66626 12.6145 3.92999C10.7615 5.91691 9.40012 7.93491 8.56849 9.9834ZM9.60699 14.7314C9.60699 13.8262 9.73422 12.9103 9.99429 11.9834H14.0594V17.3677H9.96543C9.72479 16.481 9.60699 15.6023 9.60699 14.7314ZM14.0594 19.3677H10.7123C11.4458 20.9113 12.553 22.4784 14.0594 24.0692V19.3677ZM16.0594 24.059V19.3677H19.382C18.6454 20.9023 17.546 22.4659 16.0594 24.059ZM16.0594 17.3677V11.9834H20.1715C20.4123 12.8704 20.5302 13.7494 20.5302 14.6206C20.5302 15.5255 20.403 16.4411 20.1431 17.3677H16.0594ZM16.0594 9.9834H19.4244C18.6879 8.43381 17.5749 6.8606 16.0594 5.26349V9.9834ZM14.0594 5.31255C12.5825 6.89856 11.4892 8.45539 10.7556 9.9834H14.0594V5.31255ZM22.5302 14.6206C22.5302 13.7345 22.4302 12.8555 22.2331 11.9834H25.6447C25.8614 12.845 25.9766 13.7469 25.9766 14.6758C25.9766 15.6045 25.8615 16.5062 25.6448 17.3677H22.2089C22.422 16.4578 22.5302 15.5421 22.5302 14.6206ZM21.6073 9.9834H24.9284C23.531 7.02489 20.8531 4.78975 17.6099 3.99299C19.4471 5.95024 20.7923 7.94718 21.6073 9.9834ZM5.02452 19.3677C6.45555 22.3977 9.22966 24.6691 12.5787 25.4137C10.7149 23.4387 9.352 21.4232 8.52947 19.3677H5.02452ZM21.569 19.3677C20.745 21.3978 19.4007 23.3979 17.5733 25.3675C20.8332 24.5786 23.526 22.3376 24.9286 19.3677H21.569ZM14.9766 1.67578C7.79686 1.67578 1.97656 7.49608 1.97656 14.6758C1.97656 21.8555 7.79686 27.6758 14.9766 27.6758C22.1563 27.6758 27.9766 21.8555 27.9766 14.6758C27.9766 7.49608 22.1563 1.67578 14.9766 1.67578Z" stroke="none"></path></svg>