<?xml version="1.0" encoding="utf-8"?>
<!-- Generator: Adobe Illustrator 24.1.0, SVG Export Plug-In . SVG Version: 6.00 Build 0)  -->
<svg version="1.1" id="Layer_1" xmlns="http://www.w3.org/2000/svg" xmlns:xlink="http://www.w3.org/1999/xlink" x="0px" y="0px"
	 viewBox="0 0 141.7 141.7" style="enable-background:new 0 0 141.7 141.7;" xml:space="preserve">
<style type="text/css">
	.st0{fill:#142027;}
	.st1{clip-path:url(#SVGID_2_);}
	.st2{fill:#B6B7BA;}
	.st3{clip-path:url(#SVGID_4_);}
	.st4{clip-path:url(#SVGID_6_);}
	.st5{clip-path:url(#SVGID_8_);}
	.st6{clip-path:url(#SVGID_10_);}
	.st7{clip-path:url(#SVGID_12_);}
	.st8{clip-path:url(#SVGID_14_);}
	.st9{clip-path:url(#SVGID_16_);}
	.st10{clip-path:url(#SVGID_18_);}
	.st11{clip-path:url(#SVGID_20_);}
	.st12{clip-path:url(#SVGID_22_);}
	.st13{clip-path:url(#SVGID_24_);}
	.st14{clip-path:url(#SVGID_26_);}
	.st15{clip-path:url(#SVGID_28_);}
	.st16{clip-path:url(#SVGID_30_);}
	.st17{clip-path:url(#SVGID_32_);}
	.st18{clip-path:url(#SVGID_34_);}
	.st19{clip-path:url(#SVGID_36_);}
</style>
<g>
	<g>
		<circle class="st0" cx="70.9" cy="18.4" r="5.4"/>
		<g>
			<defs>
				<circle id="SVGID_1_" cx="70.9" cy="18.4" r="5.4"/>
			</defs>
			<clipPath id="SVGID_2_">
				<use xlink:href="#SVGID_1_"  style="overflow:visible;"/>
			</clipPath>
			<g class="st1">
				<circle class="st2" cx="70.9" cy="23.8" r="4.1"/>
			</g>
		</g>
		<circle class="st2" cx="70.9" cy="17.3" r="1.8"/>
		<circle class="st0" cx="70.9" cy="58.8" r="5.4"/>
		<g>
			<defs>
				<circle id="SVGID_3_" cx="70.9" cy="58.8" r="5.4"/>
			</defs>
			<clipPath id="SVGID_4_">
				<use xlink:href="#SVGID_3_"  style="overflow:visible;"/>
			</clipPath>
			<g class="st3">
				<circle class="st2" cx="70.9" cy="64.2" r="4.1"/>
			</g>
		</g>
		<circle class="st2" cx="70.9" cy="57.7" r="1.8"/>
		<circle class="st0" cx="88.4" cy="48.7" r="5.4"/>
		<g>
			<defs>
				<circle id="SVGID_5_" cx="88.4" cy="48.7" r="5.4"/>
			</defs>
			<clipPath id="SVGID_6_">
				<use xlink:href="#SVGID_5_"  style="overflow:visible;"/>
			</clipPath>
			<g class="st4">
				<circle class="st2" cx="88.4" cy="54.1" r="4.1"/>
			</g>
		</g>
		<circle class="st2" cx="88.4" cy="47.6" r="1.8"/>
		<circle class="st0" cx="53.4" cy="48.7" r="5.4"/>
		<g>
			<defs>
				<circle id="SVGID_7_" cx="53.4" cy="48.7" r="5.4"/>
			</defs>
			<clipPath id="SVGID_8_">
				<use xlink:href="#SVGID_7_"  style="overflow:visible;"/>
			</clipPath>
			<g class="st5">
				<circle class="st2" cx="53.4" cy="54.1" r="4.1"/>
			</g>
		</g>
		<circle class="st2" cx="53.4" cy="47.6" r="1.8"/>
		<circle class="st0" cx="88.4" cy="28.5" r="5.4"/>
		<g>
			<defs>
				<circle id="SVGID_9_" cx="88.4" cy="28.5" r="5.4"/>
			</defs>
			<clipPath id="SVGID_10_">
				<use xlink:href="#SVGID_9_"  style="overflow:visible;"/>
			</clipPath>
			<g class="st6">
				<circle class="st2" cx="88.4" cy="33.9" r="4.1"/>
			</g>
		</g>
		<circle class="st2" cx="88.4" cy="27.4" r="1.8"/>
		<circle class="st0" cx="53.4" cy="28.5" r="5.4"/>
		<g>
			<defs>
				<circle id="SVGID_11_" cx="53.4" cy="28.5" r="5.4"/>
			</defs>
			<clipPath id="SVGID_12_">
				<use xlink:href="#SVGID_11_"  style="overflow:visible;"/>
			</clipPath>
			<g class="st7">
				<circle class="st2" cx="53.4" cy="33.9" r="4.1"/>
			</g>
		</g>
		<circle class="st2" cx="53.4" cy="27.4" r="1.8"/>
	</g>
	<g>
		<g>
			<circle class="st0" cx="32.5" cy="82.9" r="5.4"/>
			<g>
				<defs>
					<circle id="SVGID_13_" cx="32.5" cy="82.9" r="5.4"/>
				</defs>
				<clipPath id="SVGID_14_">
					<use xlink:href="#SVGID_13_"  style="overflow:visible;"/>
				</clipPath>
				<g class="st8">
					<circle class="st2" cx="32.5" cy="88.3" r="4.1"/>
				</g>
			</g>
			<circle class="st2" cx="32.5" cy="81.9" r="1.8"/>
			<circle class="st0" cx="32.5" cy="123.3" r="5.4"/>
			<g>
				<defs>
					<circle id="SVGID_15_" cx="32.5" cy="123.3" r="5.4"/>
				</defs>
				<clipPath id="SVGID_16_">
					<use xlink:href="#SVGID_15_"  style="overflow:visible;"/>
				</clipPath>
				<g class="st9">
					<circle class="st2" cx="32.5" cy="128.7" r="4.1"/>
				</g>
			</g>
			<circle class="st2" cx="32.5" cy="122.3" r="1.8"/>
			<circle class="st0" cx="50" cy="113.2" r="5.4"/>
			<g>
				<defs>
					<circle id="SVGID_17_" cx="50" cy="113.2" r="5.4"/>
				</defs>
				<clipPath id="SVGID_18_">
					<use xlink:href="#SVGID_17_"  style="overflow:visible;"/>
				</clipPath>
				<g class="st10">
					<circle class="st2" cx="50" cy="118.6" r="4.1"/>
				</g>
			</g>
			<circle class="st2" cx="50" cy="112.2" r="1.8"/>
			<circle class="st0" cx="15" cy="113.2" r="5.4"/>
			<g>
				<defs>
					<circle id="SVGID_19_" cx="15" cy="113.2" r="5.4"/>
				</defs>
				<clipPath id="SVGID_20_">
					<use xlink:href="#SVGID_19_"  style="overflow:visible;"/>
				</clipPath>
				<g class="st11">
					<circle class="st2" cx="15" cy="118.6" r="4.1"/>
				</g>
			</g>
			<circle class="st2" cx="15" cy="112.2" r="1.8"/>
			<circle class="st0" cx="50" cy="93" r="5.4"/>
			<g>
				<defs>
					<circle id="SVGID_21_" cx="50" cy="93" r="5.4"/>
				</defs>
				<clipPath id="SVGID_22_">
					<use xlink:href="#SVGID_21_"  style="overflow:visible;"/>
				</clipPath>
				<g class="st12">
					<circle class="st2" cx="50" cy="98.4" r="4.1"/>
				</g>
			</g>
			<circle class="st2" cx="50" cy="92" r="1.8"/>
			<circle class="st0" cx="15" cy="93" r="5.4"/>
			<g>
				<defs>
					<circle id="SVGID_23_" cx="15" cy="93" r="5.4"/>
				</defs>
				<clipPath id="SVGID_24_">
					<use xlink:href="#SVGID_23_"  style="overflow:visible;"/>
				</clipPath>
				<g class="st13">
					<circle class="st2" cx="15" cy="98.4" r="4.1"/>
				</g>
			</g>
			<circle class="st2" cx="15" cy="92" r="1.8"/>
		</g>
		<g>
			<circle class="st0" cx="109.2" cy="82.9" r="5.4"/>
			<g>
				<defs>
					<circle id="SVGID_25_" cx="109.2" cy="82.9" r="5.4"/>
				</defs>
				<clipPath id="SVGID_26_">
					<use xlink:href="#SVGID_25_"  style="overflow:visible;"/>
				</clipPath>
				<g class="st14">
					<circle class="st2" cx="109.2" cy="88.3" r="4.1"/>
				</g>
			</g>
			<circle class="st2" cx="109.2" cy="81.9" r="1.8"/>
			<circle class="st0" cx="109.2" cy="123.3" r="5.4"/>
			<g>
				<defs>
					<circle id="SVGID_27_" cx="109.2" cy="123.3" r="5.4"/>
				</defs>
				<clipPath id="SVGID_28_">
					<use xlink:href="#SVGID_27_"  style="overflow:visible;"/>
				</clipPath>
				<g class="st15">
					<circle class="st2" cx="109.2" cy="128.7" r="4.1"/>
				</g>
			</g>
			<circle class="st2" cx="109.2" cy="122.3" r="1.8"/>
			<circle class="st0" cx="126.7" cy="113.2" r="5.4"/>
			<g>
				<defs>
					<circle id="SVGID_29_" cx="126.7" cy="113.2" r="5.4"/>
				</defs>
				<clipPath id="SVGID_30_">
					<use xlink:href="#SVGID_29_"  style="overflow:visible;"/>
				</clipPath>
				<g class="st16">
					<circle class="st2" cx="126.7" cy="118.6" r="4.1"/>
				</g>
			</g>
			<circle class="st2" cx="126.7" cy="112.2" r="1.8"/>
			<circle class="st0" cx="91.7" cy="113.2" r="5.4"/>
			<g>
				<defs>
					<circle id="SVGID_31_" cx="91.7" cy="113.2" r="5.4"/>
				</defs>
				<clipPath id="SVGID_32_">
					<use xlink:href="#SVGID_31_"  style="overflow:visible;"/>
				</clipPath>
				<g class="st17">
					<circle class="st2" cx="91.7" cy="118.6" r="4.1"/>
				</g>
			</g>
			<circle class="st2" cx="91.7" cy="112.2" r="1.8"/>
			<circle class="st0" cx="126.7" cy="93" r="5.4"/>
			<g>
				<defs>
					<circle id="SVGID_33_" cx="126.7" cy="93" r="5.4"/>
				</defs>
				<clipPath id="SVGID_34_">
					<use xlink:href="#SVGID_33_"  style="overflow:visible;"/>
				</clipPath>
				<g class="st18">
					<circle class="st2" cx="126.7" cy="98.4" r="4.1"/>
				</g>
			</g>
			<circle class="st2" cx="126.7" cy="92" r="1.8"/>
			<circle class="st0" cx="91.7" cy="93" r="5.4"/>
			<g>
				<defs>
					<circle id="SVGID_35_" cx="91.7" cy="93" r="5.4"/>
				</defs>
				<clipPath id="SVGID_36_">
					<use xlink:href="#SVGID_35_"  style="overflow:visible;"/>
				</clipPath>
				<g class="st19">
					<circle class="st2" cx="91.7" cy="98.4" r="4.1"/>
				</g>
			</g>
			<circle class="st2" cx="91.7" cy="92" r="1.8"/>
		</g>
	</g>
</g>
</svg>
