<svg viewBox="0 0 299.99 299.99" xmlns="http://www.w3.org/2000/svg"><g fill="#282828"><path d="m87.75 180.46h93.37v10.37h-93.37z"/><path d="m87.75 157.44h93.37v10.37h-93.37z"/><path d="m87.75 134.43h93.37v10.37h-93.37z"/><path d="m87.75 204.79h93.37v10.37h-93.37z"/><path d="m150 0a150 150 0 1 0 150 150 150 150 0 0 0 -150-150zm51.64 212v18.23a18.22 18.22 0 0 1 -18.22 18.22h-98a18.22 18.22 0 0 1 -18.22-18.22v-134.47a18.22 18.22 0 0 1 18.25-18.22h98a18.22 18.22 0 0 1 18.22 18.23v116.23zm23.36-23.39v18.22a18.24 18.24 0 0 1 -13 17.45v-128.52a28.62 28.62 0 0 0 -28.59-28.6h-92.06a18.23 18.23 0 0 1 17.45-13h98a18.21 18.21 0 0 1 18.2 18.26v18.22z"/><path d="m87.75 111.42h93.37v10.37h-93.37z"/></g></svg>